<?xml version="1.0" standalone="no"?>
<!DOCTYPE svg PUBLIC "-//W3C//DTD SVG 20010904//EN"
 "http://www.w3.org/TR/2001/REC-SVG-20010904/DTD/svg10.dtd">
<svg version="1.0" xmlns="http://www.w3.org/2000/svg"
 width="500.000000pt" height="500.000000pt" viewBox="0 0 500.000000 500.000000"
 preserveAspectRatio="xMidYMid meet">
<metadata>
Created by potrace 1.14, written by Peter Selinger 2001-2017
</metadata>
<g transform="translate(0.000000,500.000000) scale(0.100000,-0.100000)"
fill="#000000" stroke="none">
<path d="M1 2928 c1 -1344 5 -2057 11 -2028 5 25 14 52 19 60 5 8 18 35 30 60
30 66 87 158 140 226 43 56 46 63 32 77 -9 8 -13 23 -10 31 8 20 46 21 53 1 5
-11 17 -6 53 26 62 55 163 114 233 136 33 10 60 25 63 35 8 23 32 30 49 13 21
-22 71 -9 85 21 14 32 14 31 -9 37 -12 3 -20 14 -20 26 0 14 -9 25 -26 31 -33
13 -85 61 -77 73 3 4 5 56 6 114 0 99 2 105 23 113 12 5 25 14 29 19 3 6 15
11 26 11 13 0 20 6 18 18 -3 34 1 42 24 42 12 1 33 7 47 15 35 20 84 19 104
-4 10 -11 25 -16 39 -14 33 7 53 -20 31 -42 -9 -9 -23 -14 -30 -11 -9 3 -14
-2 -14 -14 0 -17 9 -14 76 24 45 26 84 56 96 74 18 29 19 38 9 98 -15 85 -8
116 35 153 42 38 48 81 9 73 -31 -6 -45 22 -22 45 13 13 19 14 31 4 12 -10 17
-3 31 41 9 29 28 70 41 90 39 60 33 75 -40 108 -88 40 -114 46 -122 26 -7 -19
-37 -21 -53 -3 -8 10 -7 17 1 25 8 8 5 14 -15 21 -68 26 -147 44 -202 46 -125
5 -162 29 -167 105 -3 40 -1 45 20 48 13 2 34 20 50 45 30 45 110 123 173 170
22 16 45 41 50 53 5 15 17 24 30 24 12 0 37 9 56 21 31 19 32 22 17 34 -22 15
-12 45 15 45 11 0 24 -7 28 -15 8 -13 21 -10 91 22 45 21 82 41 82 45 0 5 -16
52 -36 106 -34 91 -39 98 -60 94 -31 -6 -42 22 -20 47 16 18 14 25 -35 132
-29 63 -58 121 -64 129 -6 8 -19 34 -29 57 -16 36 -21 41 -38 32 -24 -13 -38
-4 -38 27 0 15 6 24 15 24 8 0 15 2 15 5 0 3 -25 46 -56 96 -59 96 -151 215
-203 263 -17 17 -31 35 -31 42 0 7 -11 25 -24 39 -33 36 -23 62 21 56 7 -1 30
10 50 24 21 14 32 25 25 25 -6 0 -12 11 -12 24 0 39 43 43 51 4 3 -14 12 -12
59 16 113 67 219 115 355 160 149 51 355 106 392 106 13 0 29 11 39 25 19 29
39 32 52 9 8 -14 17 -14 99 0 82 14 268 16 290 3 4 -3 35 -10 68 -17 33 -6 68
-14 77 -16 12 -4 16 -1 12 9 -7 19 19 39 40 31 11 -4 16 -15 14 -32 -3 -23 3
-27 64 -48 124 -42 117 -42 75 9 -20 25 -41 57 -47 71 l-10 26 -1180 0 -1180
0 1 -2072z m69 2036 c11 -12 10 -18 -3 -32 -16 -15 -18 -15 -34 0 -13 14 -14
20 -3 32 7 9 16 16 20 16 4 0 13 -7 20 -16z m198 7 c20 -12 10 -46 -14 -49
-25 -4 -40 24 -23 44 13 16 19 17 37 5z m202 -6 c15 -18 6 -45 -13 -45 -8 0
-20 7 -27 15 -10 12 -10 18 0 30 16 19 24 19 40 0z m205 -15 c0 -16 -6 -26
-18 -28 -19 -4 -32 20 -23 44 9 25 41 13 41 -16z m200 0 c0 -29 -32 -41 -41
-16 -9 24 4 48 23 44 12 -2 18 -12 18 -28z m195 14 c11 -12 10 -18 -3 -32 -16
-15 -18 -15 -34 0 -13 14 -14 20 -3 32 7 9 16 16 20 16 4 0 13 -7 20 -16z
m194 10 c21 -8 21 -43 0 -51 -8 -3 -23 1 -31 10 -13 13 -14 19 -3 31 14 18 13
18 34 10z m200 0 c21 -8 21 -43 0 -51 -8 -3 -23 1 -31 10 -13 13 -14 19 -3 31
14 18 13 18 34 10z m-1294 -109 c17 -20 5 -45 -20 -45 -11 0 -23 7 -26 15 -6
15 11 45 26 45 4 0 13 -7 20 -15z m200 0 c17 -20 5 -45 -20 -45 -11 0 -23 7
-26 15 -6 15 11 45 26 45 4 0 13 -7 20 -15z m194 9 c21 -8 21 -43 0 -51 -8 -3
-23 1 -31 10 -13 13 -14 19 -3 31 14 18 13 18 34 10z m200 0 c20 -8 21 -43 1
-50 -24 -10 -47 14 -34 37 11 21 11 21 33 13z m216 -9 c10 -12 10 -18 0 -30
-25 -30 -61 -7 -46 30 3 8 12 15 19 15 8 0 20 -7 27 -15z m190 0 c17 -20 5
-45 -20 -45 -11 0 -23 7 -26 15 -6 15 11 45 26 45 4 0 13 -7 20 -15z m-1106
-100 c19 -19 10 -45 -15 -45 -25 0 -35 26 -19 45 15 18 15 18 34 0z m206 0
c17 -20 5 -45 -20 -45 -11 0 -23 7 -26 15 -6 15 11 45 26 45 4 0 13 -7 20 -15z
m200 0 c17 -20 5 -45 -20 -45 -11 0 -23 7 -26 15 -6 15 11 45 26 45 4 0 13 -7
20 -15z m205 -15 c0 -16 -6 -26 -18 -28 -19 -4 -32 20 -23 44 9 25 41 13 41
-16z m200 -5 c0 -30 -39 -27 -43 3 -3 20 0 23 20 20 15 -2 23 -10 23 -23z
m-705 -80 c17 -20 5 -45 -20 -45 -11 0 -23 7 -26 15 -6 15 11 45 26 45 4 0 13
-7 20 -15z m200 0 c18 -21 5 -47 -22 -43 -26 3 -37 36 -16 49 18 12 24 11 38
-6z m198 6 c20 -12 10 -46 -14 -49 -25 -4 -40 24 -23 44 13 16 19 17 37 5z
m-298 -106 c17 -20 5 -45 -20 -45 -11 0 -23 7 -26 15 -6 15 11 45 26 45 4 0
13 -7 20 -15z m207 -29 c-4 -9 -16 -16 -27 -16 -29 0 -38 30 -15 47 16 11 21
11 33 -1 8 -8 12 -22 9 -30z m-404 22 c7 -21 -4 -38 -23 -38 -23 0 -34 16 -26
35 7 18 43 20 49 3z m97 -93 c17 -20 5 -45 -20 -45 -11 0 -23 7 -26 15 -6 15
11 45 26 45 4 0 13 -7 20 -15z m407 -29 c-8 -20 -43 -21 -51 -1 -3 8 2 22 11
30 14 15 18 15 31 1 8 -8 12 -22 9 -30z m-202 9 c0 -22 -31 -33 -47 -17 -17
17 -1 44 24 40 15 -2 23 -10 23 -23z m-300 -100 c0 -22 -31 -33 -47 -17 -17
17 -1 44 24 40 15 -2 23 -10 23 -23z m202 9 c3 -8 -2 -23 -11 -32 -15 -15 -17
-15 -32 0 -21 21 -11 48 16 48 11 0 23 -7 27 -16z m200 0 c3 -8 -1 -22 -9 -30
-12 -12 -17 -12 -33 -1 -23 17 -14 47 15 47 11 0 23 -7 27 -16z m201 -10 c4
-26 -20 -37 -43 -21 -10 8 -14 19 -9 30 9 25 48 18 52 -9z m-503 -99 c0 -22
-31 -33 -47 -17 -17 17 -1 44 24 40 15 -2 23 -10 23 -23z m200 0 c0 -21 -31
-33 -46 -18 -5 5 -7 17 -3 27 9 24 49 17 49 -9z m202 9 c3 -8 -1 -22 -9 -30
-13 -14 -17 -14 -31 1 -9 8 -14 22 -11 30 8 20 43 19 51 -1z m201 -10 c4 -28
-28 -41 -45 -19 -16 23 -5 47 21 43 13 -2 22 -11 24 -24z m-701 -90 c3 -8 -2
-23 -11 -32 -15 -15 -17 -15 -32 0 -21 21 -11 48 16 48 11 0 23 -7 27 -16z
m200 0 c3 -8 -2 -23 -11 -32 -15 -15 -17 -15 -32 0 -21 21 -11 48 16 48 11 0
23 -7 27 -16z m201 -10 c4 -27 -26 -40 -46 -20 -13 13 -13 18 -2 31 18 21 44
15 48 -11z m200 2 c4 -21 -14 -37 -35 -29 -14 5 -18 35 -6 47 12 12 38 1 41
-18z m200 0 c4 -21 -14 -37 -35 -29 -14 5 -18 35 -6 47 12 12 38 1 41 -18z
m-701 -92 c3 -8 -2 -23 -11 -32 -15 -15 -17 -15 -32 0 -21 21 -11 48 16 48 11
0 23 -7 27 -16z m200 0 c3 -8 -2 -23 -11 -32 -14 -15 -18 -15 -31 -1 -9 9 -13
23 -9 32 8 21 43 22 51 1z m201 -10 c4 -26 -26 -40 -45 -21 -8 7 -11 21 -7 31
9 24 48 17 52 -10z m197 1 c0 -23 -34 -33 -45 -14 -13 20 1 40 24 37 13 -2 21
-10 21 -23z m-705 -81 c11 -12 10 -18 -3 -32 -16 -15 -18 -15 -34 0 -13 14
-14 20 -3 32 7 9 16 16 20 16 4 0 13 -7 20 -16z m194 10 c21 -8 21 -43 0 -51
-8 -3 -23 1 -31 10 -13 13 -14 19 -3 31 14 18 13 18 34 10z m200 0 c21 -8 21
-43 0 -51 -8 -3 -23 1 -31 10 -13 13 -14 19 -3 31 14 18 13 18 34 10z m211
-24 c0 -29 -32 -41 -41 -16 -9 24 4 48 23 44 12 -2 18 -12 18 -28z m193 21
c19 -11 11 -45 -11 -49 -19 -4 -32 20 -23 43 6 17 15 19 34 6z m-698 -106 c17
-20 5 -45 -20 -45 -11 0 -23 7 -26 15 -6 15 11 45 26 45 4 0 13 -7 20 -15z
m200 0 c17 -20 5 -45 -20 -45 -11 0 -23 7 -26 15 -6 15 11 45 26 45 4 0 13 -7
20 -15z m194 9 c21 -8 21 -43 0 -51 -8 -3 -23 1 -31 10 -13 13 -14 19 -3 31
14 18 13 18 34 10z m200 0 c20 -8 21 -43 1 -50 -24 -10 -47 14 -34 37 11 21
11 21 33 13z m216 -9 c10 -12 10 -18 0 -30 -25 -30 -61 -7 -46 30 3 8 12 15
19 15 8 0 20 -7 27 -15z m-900 -110 c0 -32 -45 -49 -56 -20 -10 24 14 47 37
34 10 -5 19 -11 19 -14z m190 10 c17 -20 5 -45 -20 -45 -11 0 -23 7 -26 15 -6
15 11 45 26 45 4 0 13 -7 20 -15z m200 0 c17 -20 5 -45 -20 -45 -11 0 -23 7
-26 15 -6 15 11 45 26 45 4 0 13 -7 20 -15z m208 -13 c4 -26 -22 -40 -43 -22
-11 9 -12 17 -4 32 13 25 43 19 47 -10z m402 3 c0 -32 -35 -46 -58 -23 -19 19
15 51 39 37 11 -5 19 -11 19 -14z m-205 -10 c0 -30 -39 -27 -43 3 -3 20 0 23
20 20 15 -2 23 -10 23 -23z m-705 -80 c17 -20 5 -45 -20 -45 -11 0 -23 7 -26
15 -6 15 11 45 26 45 4 0 13 -7 20 -15z m200 0 c18 -21 5 -47 -22 -43 -26 3
-37 36 -16 49 18 12 24 11 38 -6z m198 6 c20 -12 10 -46 -14 -49 -25 -4 -40
24 -23 44 13 16 19 17 37 5z m210 -25 c-2 -13 -10 -21 -23 -21 -23 0 -33 34
-14 45 20 13 40 -1 37 -24z m201 10 c9 -10 8 -16 -4 -26 -20 -16 -45 -6 -45
20 0 23 31 28 49 6z m-709 -91 c17 -20 5 -45 -20 -45 -11 0 -23 7 -26 15 -6
15 11 45 26 45 4 0 13 -7 20 -15z m207 -29 c-4 -9 -16 -16 -27 -16 -29 0 -38
30 -15 47 16 11 21 11 33 -1 8 -8 12 -22 9 -30z m203 9 c0 -29 -25 -39 -45
-19 -19 19 -19 19 0 38 20 20 45 10 45 -19z m198 1 c-2 -13 -12 -22 -25 -24
-19 -3 -23 1 -23 21 0 14 6 27 13 30 22 7 38 -5 35 -27z m-805 12 c7 -21 -4
-38 -23 -38 -23 0 -34 16 -26 35 7 18 43 20 49 3z m1000 0 c7 -21 -4 -38 -23
-38 -23 0 -34 16 -26 35 7 18 43 20 49 3z m-903 -93 c17 -20 5 -45 -20 -45
-11 0 -23 7 -26 15 -6 15 11 45 26 45 4 0 13 -7 20 -15z m407 -29 c-8 -21 -43
-20 -51 1 -10 26 23 48 42 29 8 -8 12 -22 9 -30z m593 29 c17 -20 5 -45 -20
-45 -11 0 -23 7 -26 15 -6 15 11 45 26 45 4 0 13 -7 20 -15z m-795 -20 c0 -22
-31 -33 -47 -17 -17 17 -1 44 24 40 15 -2 23 -10 23 -23z m400 0 c0 -23 -34
-33 -45 -14 -13 20 1 40 24 37 13 -2 21 -10 21 -23z m203 13 c15 -15 -3 -38
-29 -38 -14 0 -19 7 -19 25 0 27 26 35 48 13z m-903 -113 c0 -22 -31 -33 -47
-17 -17 17 -1 44 24 40 15 -2 23 -10 23 -23z m202 9 c3 -8 -2 -23 -11 -32 -15
-15 -17 -15 -32 0 -21 21 -11 48 16 48 11 0 23 -7 27 -16z m200 0 c3 -8 -1
-22 -9 -30 -12 -12 -17 -12 -33 -1 -23 17 -14 47 15 47 11 0 23 -7 27 -16z
m201 -10 c4 -26 -20 -37 -43 -21 -10 8 -14 19 -9 30 9 25 48 18 52 -9z m200 2
c4 -21 -14 -37 -35 -29 -14 5 -18 35 -6 47 12 12 38 1 41 -18z m-703 -101 c0
-22 -31 -33 -47 -17 -17 17 -1 44 24 40 15 -2 23 -10 23 -23z m202 9 c3 -8 -1
-22 -9 -30 -19 -19 -52 3 -42 29 8 21 43 22 51 1z m200 0 c3 -8 -1 -22 -9 -30
-13 -14 -17 -14 -31 1 -9 8 -14 22 -11 30 8 20 43 19 51 -1z m201 -10 c4 -28
-28 -41 -45 -19 -16 23 -5 47 21 43 13 -2 22 -11 24 -24z m-701 -90 c3 -8 -2
-23 -11 -32 -15 -15 -17 -15 -32 0 -21 21 -11 48 16 48 11 0 23 -7 27 -16z
m200 0 c3 -8 -2 -23 -11 -32 -15 -15 -17 -15 -32 0 -21 21 -11 48 16 48 11 0
23 -7 27 -16z m200 0 c3 -8 -2 -23 -11 -32 -15 -15 -17 -15 -33 0 -13 14 -14
20 -3 32 16 20 39 20 47 0z m201 -8 c4 -21 -14 -37 -35 -29 -14 5 -18 35 -6
47 12 12 38 1 41 -18z m-501 -92 c3 -8 -2 -23 -11 -32 -15 -15 -17 -15 -32 0
-21 21 -11 48 16 48 11 0 23 -7 27 -16z m200 0 c3 -8 -2 -23 -11 -32 -14 -15
-18 -15 -31 -1 -9 9 -13 23 -9 32 8 21 43 22 51 1z m201 -10 c4 -28 -28 -41
-45 -19 -16 23 -5 47 21 43 13 -2 22 -11 24 -24z m-508 -80 c11 -12 10 -18 -3
-32 -16 -15 -18 -15 -34 0 -13 14 -14 20 -3 32 7 9 16 16 20 16 4 0 13 -7 20
-16z m205 -14 c0 -18 -6 -26 -21 -28 -26 -4 -40 24 -23 45 18 21 44 11 44 -17z
m195 15 c15 -18 6 -45 -13 -45 -8 0 -20 7 -27 15 -10 12 -10 18 0 30 16 19 24
19 40 0z m-300 -100 c17 -20 5 -45 -20 -45 -11 0 -23 7 -26 15 -6 15 11 45 26
45 4 0 13 -7 20 -15z m200 0 c17 -20 5 -45 -20 -45 -11 0 -23 7 -26 15 -6 15
11 45 26 45 4 0 13 -7 20 -15z m194 9 c21 -8 21 -43 0 -51 -8 -3 -23 1 -31 10
-13 13 -14 19 -3 31 14 18 13 18 34 10z m-484 -119 c0 -32 -45 -49 -56 -20
-10 24 14 47 37 34 10 -5 19 -11 19 -14z m190 10 c17 -20 5 -45 -20 -45 -11 0
-23 7 -26 15 -6 15 11 45 26 45 4 0 13 -7 20 -15z m200 0 c16 -19 6 -45 -19
-45 -23 0 -35 28 -20 46 15 18 24 18 39 -1z m208 -13 c4 -26 -22 -40 -43 -22
-11 9 -12 17 -4 32 13 25 43 19 47 -10z m197 -7 c0 -30 -39 -27 -43 3 -3 20 0
23 20 20 15 -2 23 -10 23 -23z m-705 -80 c17 -20 5 -45 -20 -45 -11 0 -23 7
-26 15 -6 15 11 45 26 45 4 0 13 -7 20 -15z m200 0 c18 -21 5 -47 -22 -43 -26
3 -37 36 -16 49 18 12 24 11 38 -6z m198 6 c20 -12 10 -46 -14 -49 -25 -4 -40
24 -23 44 13 16 19 17 37 5z m210 -25 c-2 -13 -10 -21 -23 -21 -23 0 -33 34
-14 45 20 13 40 -1 37 -24z m392 19 c17 -20 5 -45 -20 -45 -11 0 -23 7 -26 15
-6 15 11 45 26 45 4 0 13 -7 20 -15z m-191 -9 c9 -10 8 -16 -4 -26 -20 -16
-45 -6 -45 20 0 23 31 28 49 6z m-709 -91 c17 -20 5 -45 -20 -45 -11 0 -23 7
-26 15 -6 15 11 45 26 45 4 0 13 -7 20 -15z m207 -29 c-4 -9 -16 -16 -27 -16
-29 0 -38 30 -15 47 16 11 21 11 33 -1 8 -8 12 -22 9 -30z m203 8 c0 -19 -5
-24 -24 -24 -29 0 -40 24 -20 44 20 20 44 9 44 -20z m198 2 c-2 -13 -12 -22
-25 -24 -19 -3 -23 1 -23 21 0 14 6 27 13 30 22 7 38 -5 35 -27z m-805 12 c7
-21 -4 -38 -23 -38 -23 0 -34 16 -26 35 7 18 43 20 49 3z m1000 0 c7 -21 -4
-38 -23 -38 -23 0 -34 16 -26 35 7 18 43 20 49 3z m-903 -93 c17 -20 5 -45
-20 -45 -11 0 -23 7 -26 15 -6 15 11 45 26 45 4 0 13 -7 20 -15z m407 -29 c-8
-20 -43 -21 -51 -1 -3 8 2 22 11 30 14 15 18 15 31 1 8 -8 12 -22 9 -30z
m-202 9 c0 -22 -31 -33 -47 -17 -17 17 -1 44 24 40 15 -2 23 -10 23 -23z m400
0 c0 -23 -34 -33 -45 -14 -13 20 1 40 24 37 13 -2 21 -10 21 -23z m203 13 c15
-15 -3 -38 -29 -38 -14 0 -19 7 -19 25 0 27 26 35 48 13z m-903 -113 c0 -22
-31 -33 -47 -17 -17 17 -1 44 24 40 15 -2 23 -10 23 -23z m202 9 c3 -8 -2 -23
-11 -32 -15 -15 -17 -15 -32 0 -21 21 -11 48 16 48 11 0 23 -7 27 -16z m200 0
c3 -8 -1 -22 -9 -30 -12 -12 -17 -12 -33 -1 -23 17 -14 47 15 47 11 0 23 -7
27 -16z m201 -10 c4 -26 -20 -37 -43 -21 -10 8 -14 19 -9 30 9 25 48 18 52 -9z
m200 2 c4 -21 -14 -37 -35 -29 -14 5 -18 35 -6 47 12 12 38 1 41 -18z m197 -1
c0 -22 -31 -33 -47 -17 -17 17 -1 44 24 40 15 -2 23 -10 23 -23z m-900 -100
c0 -22 -31 -33 -47 -17 -17 17 -1 44 24 40 15 -2 23 -10 23 -23z m200 0 c0
-21 -31 -33 -46 -18 -5 5 -7 17 -3 27 9 24 49 17 49 -9z m202 9 c3 -8 -1 -22
-9 -30 -13 -14 -17 -14 -31 1 -9 8 -14 22 -11 30 8 20 43 19 51 -1z m201 -10
c4 -28 -28 -41 -45 -19 -16 23 -5 47 21 43 13 -2 22 -11 24 -24z m201 12 c9
-11 8 -17 -4 -30 -19 -18 -45 -11 -45 13 0 32 28 42 49 17z m-902 -102 c3 -8
-2 -23 -11 -32 -15 -15 -17 -15 -32 0 -21 21 -11 48 16 48 11 0 23 -7 27 -16z
m200 0 c3 -8 -2 -23 -11 -32 -15 -15 -17 -15 -32 0 -21 21 -11 48 16 48 11 0
23 -7 27 -16z m201 -10 c4 -27 -26 -40 -46 -20 -13 13 -13 18 -2 31 18 21 44
15 48 -11z m200 2 c4 -21 -14 -37 -35 -29 -14 5 -18 35 -6 47 12 12 38 1 41
-18z m200 0 c4 -21 -14 -37 -35 -29 -14 5 -18 35 -6 47 12 12 38 1 41 -18z
m199 8 c3 -8 -2 -23 -11 -32 -15 -15 -17 -15 -32 0 -21 21 -11 48 16 48 11 0
23 -7 27 -16z m-900 -100 c3 -8 -2 -23 -11 -32 -15 -15 -17 -15 -32 0 -21 21
-11 48 16 48 11 0 23 -7 27 -16z m200 0 c3 -8 -2 -23 -11 -32 -14 -15 -18 -15
-31 -1 -9 9 -13 23 -9 32 8 21 43 22 51 1z m201 -10 c4 -26 -26 -40 -45 -21
-8 7 -11 21 -7 31 9 24 48 17 52 -10z m-508 -80 c11 -12 10 -18 -3 -32 -16
-15 -18 -15 -34 0 -13 14 -14 20 -3 32 7 9 16 16 20 16 4 0 13 -7 20 -16z
m194 10 c21 -8 21 -43 0 -51 -8 -3 -23 1 -31 10 -13 13 -14 19 -3 31 14 18 13
18 34 10z m200 0 c21 -8 21 -43 0 -51 -8 -3 -23 1 -31 10 -13 13 -14 19 -3 31
14 18 13 18 34 10z m-294 -109 c17 -20 5 -45 -20 -45 -11 0 -23 7 -26 15 -6
15 11 45 26 45 4 0 13 -7 20 -15z m200 0 c17 -20 5 -45 -20 -45 -11 0 -23 7
-26 15 -6 15 11 45 26 45 4 0 13 -7 20 -15z m194 9 c21 -8 21 -43 0 -51 -8 -3
-23 1 -31 10 -13 13 -14 19 -3 31 14 18 13 18 34 10z m-484 -119 c0 -32 -45
-49 -56 -20 -10 24 14 47 37 34 10 -5 19 -11 19 -14z m190 10 c17 -20 5 -45
-20 -45 -11 0 -23 7 -26 15 -6 15 11 45 26 45 4 0 13 -7 20 -15z m200 0 c17
-20 5 -45 -20 -45 -11 0 -23 7 -26 15 -6 15 11 45 26 45 4 0 13 -7 20 -15z
m-300 -100 c17 -20 5 -45 -20 -45 -11 0 -23 7 -26 15 -6 15 11 45 26 45 4 0
13 -7 20 -15z m200 0 c18 -21 5 -47 -22 -43 -26 3 -37 36 -16 49 18 12 24 11
38 -6z m198 6 c20 -12 10 -46 -14 -49 -25 -4 -40 24 -23 44 13 16 19 17 37 5z
m-298 -106 c17 -20 5 -45 -20 -45 -11 0 -23 7 -26 15 -6 15 11 45 26 45 4 0
13 -7 20 -15z m207 -29 c-4 -9 -16 -16 -27 -16 -29 0 -38 30 -15 47 16 11 21
11 33 -1 8 -8 12 -22 9 -30z m-404 22 c7 -21 -4 -38 -23 -38 -23 0 -34 16 -26
35 7 18 43 20 49 3z m97 -93 c17 -20 5 -45 -20 -45 -11 0 -23 7 -26 15 -6 15
11 45 26 45 4 0 13 -7 20 -15z m205 -20 c0 -22 -31 -33 -47 -17 -17 17 -1 44
24 40 15 -2 23 -10 23 -23z m-300 -100 c0 -22 -31 -33 -47 -17 -17 17 -1 44
24 40 15 -2 23 -10 23 -23z m100 -100 c0 -22 -31 -33 -47 -17 -17 17 -1 44 24
40 15 -2 23 -10 23 -23z m-98 -91 c3 -8 -2 -23 -11 -32 -15 -15 -17 -15 -32 0
-21 21 -11 48 16 48 11 0 23 -7 27 -16z"/>
<path d="M2450 4998 c0 -3 16 -26 36 -50 42 -49 136 -188 180 -263 l28 -50
-37 28 c-20 15 -37 25 -37 22 0 -3 -17 5 -37 18 -122 76 -387 162 -561 181
-291 32 -817 -103 -1154 -298 l-128 -73 26 -24 c15 -13 55 -61 90 -105 156
-199 343 -564 459 -899 l41 -119 -100 -41 c-162 -65 -335 -188 -458 -327 -63
-69 -83 -98 -58 -83 33 21 347 -66 517 -143 l81 -37 4 -65 c3 -48 0 -70 -12
-84 -13 -16 -10 -15 22 4 54 32 78 24 97 -30 l15 -45 11 60 c56 296 175 517
384 720 88 85 96 87 70 23 -12 -29 -31 -81 -41 -115 -11 -35 -26 -63 -33 -63
-18 0 -148 -140 -180 -195 -36 -60 -85 -201 -84 -240 0 -22 4 -15 14 26 29
119 103 249 198 347 28 28 55 52 58 52 4 0 3 -15 -2 -32 -12 -41 -39 -214 -39
-248 0 -19 10 -8 38 45 36 67 127 198 140 202 4 1 20 -17 36 -40 27 -38 30
-52 35 -137 3 -63 7 -87 12 -70 19 67 0 167 -46 235 l-26 37 34 42 c19 22 53
61 75 86 39 44 40 45 60 27 11 -10 27 -37 36 -61 16 -42 16 -45 -19 -166 -42
-144 -79 -321 -100 -474 -18 -130 -18 -137 -2 -111 102 172 520 565 813 765
153 105 268 179 271 176 4 -4 -50 -143 -72 -186 -10 -20 -24 -29 -52 -34 -81
-13 -192 -85 -243 -156 -19 -27 -19 -29 -3 -23 10 3 28 14 41 24 43 33 193 81
192 62 -1 -5 -22 -48 -48 -98 l-47 -90 -55 3 c-44 2 -67 -3 -118 -27 -62 -30
-181 -135 -168 -149 4 -3 20 8 36 25 44 47 110 98 157 122 44 22 117 28 128
11 7 -11 -45 -99 -139 -240 -31 -46 -51 -69 -54 -60 -10 34 -46 60 -80 60 -94
0 -187 -204 -137 -300 27 -52 77 -64 131 -31 37 22 69 85 85 164 9 43 18 61
38 73 14 10 85 75 157 146 72 70 133 128 136 128 2 0 19 -21 37 -46 62 -86 86
-221 60 -332 -15 -63 -100 -243 -144 -303 -45 -63 -29 -63 25 -2 139 161 188
422 110 583 -17 36 -43 75 -57 87 l-27 22 37 43 c20 24 54 63 76 88 l39 44 17
-59 c10 -33 20 -67 23 -75 6 -19 41 85 41 127 1 17 -4 44 -9 58 -9 24 -5 35
30 87 l40 60 0 -41 c0 -72 -48 -341 -89 -502 -83 -326 -180 -544 -297 -669
l-45 -48 -56 19 c-31 10 -68 19 -82 18 -18 -1 -14 -4 15 -9 71 -14 111 -36
125 -68 13 -29 14 -30 41 -16 41 21 74 17 97 -12 24 -30 27 -63 9 -84 -11 -12
-10 -12 5 -1 25 19 21 55 -10 91 -22 26 -24 33 -12 41 24 17 122 59 126 55 5
-4 -89 -241 -118 -297 -11 -22 -16 -39 -13 -39 4 0 53 44 109 99 85 83 116
106 191 141 109 53 204 64 280 35 50 -19 84 -62 84 -105 0 -48 -30 -145 -70
-226 -66 -134 -102 -149 -387 -158 -138 -4 -180 -2 -208 9 -43 18 -55 18 -79
0 -16 -12 -17 -18 -8 -27 33 -33 1 -152 -56 -206 -34 -31 -185 -138 -193 -135
-5 2 -102 -191 -100 -202 2 -11 -419 -378 -463 -402 -11 -7 -16 -12 -9 -13 24
0 486 394 489 419 0 3 17 41 37 83 21 42 37 81 37 87 0 6 5 11 11 11 19 0 164
108 203 150 20 23 44 57 54 77 l17 36 10 -83 10 -82 123 -64 c138 -71 303
-176 466 -299 198 -148 426 -347 426 -372 0 -7 -14 -9 -39 -6 -81 11 -209 -76
-293 -200 -48 -70 -98 -175 -97 -202 0 -11 10 8 23 41 32 88 69 145 137 218
66 71 139 122 187 132 29 6 33 3 66 -49 49 -76 77 -166 83 -269 5 -79 8 -88
26 -88 18 0 19 5 12 56 -4 31 -14 82 -22 113 -9 31 -21 90 -28 131 -16 103
-40 143 -140 238 -218 206 -507 412 -832 592 l-81 45 -5 50 c-2 28 -8 58 -12
68 -10 24 -2 22 250 -60 685 -224 1299 -509 1638 -760 48 -36 90 -63 93 -60 5
5 -58 87 -187 245 -167 202 -508 537 -548 537 -9 0 -106 50 -216 112 -110 62
-245 133 -300 159 -55 26 -102 48 -104 50 -7 6 21 64 31 64 5 0 42 -15 81 -33
144 -67 402 -236 410 -268 3 -10 15 -16 29 -16 37 0 228 -63 513 -168 143 -53
268 -99 278 -102 16 -5 17 7 17 156 0 107 -4 161 -11 161 -5 0 -8 3 -5 8 2 4
-13 16 -34 26 -22 10 -39 22 -38 25 0 3 -1 9 -2 14 -1 4 -3 10 -5 15 -1 4 -5
15 -9 25 -5 9 -6 30 -4 47 2 16 1 27 -3 25 -4 -3 -12 2 -19 10 -7 8 -10 15 -6
15 4 0 -1 11 -10 26 -9 14 -23 23 -30 20 -8 -3 -17 0 -21 7 -5 7 -20 18 -35
24 -16 7 -28 17 -28 22 0 8 -67 44 -93 49 -4 1 -26 15 -49 32 -22 16 -45 30
-51 30 -5 0 -24 15 -41 33 -17 18 -39 36 -48 40 -10 3 -18 11 -18 17 0 5 -9
10 -20 10 -11 0 -20 5 -20 10 0 10 -44 33 -65 34 -5 1 -14 5 -20 9 -5 5 -35
25 -65 46 -35 23 -55 44 -55 57 0 13 -6 18 -17 16 -10 -2 -18 3 -18 11 0 8
-12 17 -27 20 -27 6 -53 43 -53 74 0 7 -9 13 -20 13 -11 0 -20 7 -20 15 0 9
-6 26 -13 38 -14 22 -15 70 -2 120 6 22 4 27 -10 27 -9 0 -15 6 -12 13 2 6 10
12 17 12 7 0 19 21 28 48 8 26 21 47 28 47 8 0 14 7 14 15 0 9 9 15 25 15 14
0 25 -5 25 -11 0 -6 -9 -8 -22 -4 -21 5 -21 5 -5 -5 15 -9 22 -8 36 4 16 15
25 15 111 -3 51 -10 96 -24 99 -30 4 -6 52 -24 106 -40 132 -40 219 -76 392
-165 160 -83 195 -88 49 -7 -122 68 -265 130 -402 176 -60 20 -110 38 -111 39
-2 1 4 25 12 52 42 142 62 367 46 525 -34 350 -156 628 -362 825 -35 33 -76
70 -90 80 l-26 20 81 65 c149 120 270 299 346 514 34 97 70 244 69 285 0 14
-11 -22 -24 -80 -42 -183 -121 -367 -216 -506 -47 -68 -183 -208 -243 -251
l-30 -21 87 -82 c105 -99 172 -187 226 -294 91 -183 143 -354 145 -473 1 -35
4 -63 7 -63 3 0 6 -23 6 -51 1 -27 -2 -48 -5 -44 -3 3 -5 20 -4 38 2 36 -14
68 -25 51 -14 -19 -42 -23 -69 -9 -15 8 -31 12 -36 9 -5 -3 -8 -2 -7 3 4 15
-13 43 -23 37 -5 -3 -4 -12 3 -20 10 -12 9 -13 -6 -8 -10 4 -20 1 -25 -6 -12
-20 -40 -22 -33 -3 5 13 1 13 -23 -2 -16 -9 -21 -11 -12 -3 16 14 16 16 -5 27
-27 14 -48 56 -35 69 5 5 3 9 -6 9 -8 0 -13 -4 -10 -8 2 -4 0 -10 -6 -14 -6
-4 -8 -10 -5 -15 7 -11 -43 -42 -57 -34 -7 4 -8 3 -4 -4 4 -7 1 -12 -8 -12 -9
0 -13 6 -10 14 3 8 1 17 -5 21 -6 3 -9 0 -5 -8 3 -8 1 -18 -5 -22 -14 -8 -14
-35 0 -35 6 0 8 8 5 18 -6 16 -5 16 7 0 12 -15 14 -15 25 0 9 13 11 14 8 2 -1
-8 -1 -12 1 -7 3 4 9 7 14 7 6 0 8 -4 5 -8 -3 -5 1 -9 9 -9 8 0 11 5 7 11 -11
19 -10 34 3 40 9 3 12 -4 10 -24 -3 -41 -22 -60 -60 -60 -19 0 -35 -3 -37 -7
-15 -34 -158 -60 -158 -29 0 8 -8 28 -17 45 -14 24 -23 29 -40 24 -19 -4 -23
-1 -23 17 0 17 -4 20 -19 15 -14 -4 -25 1 -37 20 -9 14 -21 25 -28 25 -6 0
-22 12 -35 25 -13 14 -31 25 -41 25 -10 0 -20 6 -23 13 -5 12 -135 87 -152 87
-3 0 -3 -6 1 -12 6 -10 5 -10 -7 -1 -8 6 -18 11 -24 11 -5 0 -11 6 -13 14 -2
9 0 8 7 -2 10 -13 11 -13 11 0 0 13 1 13 10 0 5 -8 10 -10 10 -4 0 22 -23 30
-80 27 -57 -3 -60 -2 -60 19 0 19 -2 20 -10 8 -17 -25 0 36 32 117 15 40 31
86 34 102 6 28 5 30 -38 36 -121 18 -379 -52 -543 -148 -56 -33 -158 -112
-194 -151 -13 -14 -29 -23 -35 -19 -6 3 -8 3 -4 -2 10 -10 -92 -116 -105 -108
-6 3 -7 1 -3 -6 10 -16 -43 -76 -67 -76 -11 0 -22 -7 -24 -15 -4 -13 -3 -13 6
0 8 11 13 12 22 3 9 -9 5 -18 -17 -39 -16 -15 -23 -24 -16 -20 16 9 16 1 -1
-12 -13 -11 -15 -5 -19 46 -1 6 -5 12 -10 12 -5 0 -8 -8 -6 -17 2 -10 -2 -17
-8 -16 -8 1 -10 -6 -6 -19 5 -19 4 -20 -10 -7 -9 7 -13 18 -10 23 3 5 0 6 -7
2 -9 -6 -9 -11 1 -24 11 -13 11 -15 -3 -10 -13 5 -16 2 -12 -13 4 -15 8 -17
19 -8 11 9 14 8 14 -2 0 -10 3 -10 12 -1 7 7 16 12 22 12 5 0 1 -6 -9 -14 -11
-8 -25 -12 -32 -9 -8 3 -11 -2 -8 -15 3 -16 -1 -18 -23 -13 -25 5 -25 6 -5 9
22 3 22 4 6 28 -11 18 -19 22 -27 14 -8 -8 -7 -13 4 -20 12 -8 10 -10 -7 -10
-27 0 -29 16 -5 43 9 11 11 17 5 13 -7 -4 -13 -2 -13 3 0 6 4 11 10 11 5 0 7
6 4 13 -7 18 78 268 132 389 62 141 59 132 45 124 -26 -17 116 219 168 278
l26 29 -60 -33 c-143 -79 -336 -259 -429 -399 -24 -36 -87 -151 -140 -254 -65
-125 -95 -175 -90 -150 11 61 53 221 73 277 10 28 26 74 36 101 31 88 78 174
142 259 81 108 220 251 258 266 17 7 25 14 18 17 -26 10 -208 -81 -342 -170
-216 -145 -467 -466 -547 -702 -25 -73 -27 -94 -28 -237 -1 -91 -5 -153 -10
-148 -5 5 -19 53 -32 107 -13 54 -28 116 -33 138 -6 22 -11 79 -11 127 0 85
-1 88 -25 94 -83 21 -379 -47 -465 -106 -28 -20 -106 -60 -115 -60 -16 0 78
99 156 165 162 136 303 218 430 251 61 16 74 23 84 46 6 16 15 25 19 21 4 -4
4 -1 1 7 -8 22 64 163 119 237 67 89 166 176 240 211 81 39 150 62 182 62 l26
0 -29 31 c-60 66 -292 263 -372 316 -137 91 -226 131 -382 172 -145 38 -304
58 -344 42 -14 -6 7 -10 65 -15 190 -16 371 -62 503 -127 106 -53 249 -148
241 -160 -3 -5 0 -8 7 -7 6 2 13 -1 15 -7 2 -6 -27 -11 -72 -13 -59 -3 -80 0
-94 13 -11 10 -21 12 -24 7 -4 -6 -22 -3 -46 9 -47 23 -59 23 -85 5 -32 -22
-141 -49 -184 -44 -49 4 -41 -9 9 -15 19 -2 6 -4 -30 -4 l-65 1 -90 86 c-121
115 -141 136 -208 214 -68 77 -69 75 32 135 166 99 440 206 616 241 33 6 85
18 115 25 252 63 488 49 755 -45 147 -53 320 -149 367 -205 53 -63 -19 78
-109 215 -63 94 -162 215 -163 198z m-875 -884 c-1 -11 -5 -26 -8 -32 -8 -11
-46 -4 -48 9 -4 29 -4 34 2 39 4 3 18 5 32 5 19 0 24 -5 22 -21z m-382 1 c14
-6 16 -10 6 -16 -14 -8 -49 6 -49 20 0 10 15 9 43 -4z m297 -75 c0 -5 -4 -10
-10 -10 -5 0 -10 5 -10 10 0 6 5 10 10 10 6 0 10 -4 10 -10z m806 -698 l-51
-127 -6 47 c-4 26 -10 59 -13 72 -5 21 4 33 57 80 34 31 62 56 63 56 0 0 -22
-57 -50 -128z m-77 -67 l1 -30 -19 29 c-16 24 -17 34 -9 50 11 20 11 20 19 1
4 -11 8 -33 8 -50z m1116 -45 c3 -6 -1 -7 -9 -4 -18 7 -21 14 -7 14 6 0 13 -4
16 -10z m805 -204 c0 -5 -8 -2 -17 5 -15 12 -16 12 -9 -6 5 -14 4 -17 -3 -10
-6 6 -8 20 -4 33 5 21 6 21 19 5 7 -10 14 -22 14 -27z m-1853 -78 c-3 -8 -6
-5 -6 6 -1 11 2 17 5 13 3 -3 4 -12 1 -19z m1863 -18 c0 -5 -2 -10 -4 -10 -3
0 -8 5 -11 10 -3 6 -1 10 4 10 6 0 11 -4 11 -10z m-1965 -68 c-3 -3 -11 0 -18
7 -9 10 -8 11 6 5 10 -3 15 -9 12 -12z m2135 2 c0 -2 -9 -4 -20 -4 -11 0 -20
4 -20 9 0 5 9 7 20 4 11 -3 20 -7 20 -9z m-254 -70 c-15 -14 -16 -14 -16 3 0
26 24 50 28 29 2 -9 -4 -23 -12 -32z m-2651 -140 c6 -29 4 -32 -22 -37 -15 -3
-29 -4 -31 -2 -2 2 -6 28 -9 59 -4 41 -1 68 12 103 l19 48 12 -70 c7 -38 15
-84 19 -101z m2874 149 c17 -10 31 -21 31 -25 0 -5 7 -8 15 -8 9 0 18 -7 21
-15 4 -8 11 -15 17 -15 7 0 7 4 -1 12 -15 15 -16 48 -1 48 6 0 9 -9 6 -20 -3
-11 -2 -20 3 -20 4 0 11 -7 14 -16 4 -9 2 -13 -5 -8 -7 4 -10 1 -7 -7 5 -16
-72 -114 -116 -146 -34 -26 -40 -28 -30 -11 4 7 3 8 -4 4 -7 -4 -12 -14 -12
-21 0 -19 -68 -53 -100 -51 -14 1 -31 -2 -38 -7 -9 -7 -17 -6 -25 2 -9 10 -8
11 7 5 15 -6 17 -4 11 6 -5 8 -4 11 2 7 7 -4 11 8 11 33 0 22 4 45 7 50 4 6 1
17 -5 25 -10 12 -8 19 11 35 13 12 34 25 46 30 14 6 26 24 32 47 22 80 52 98
110 66z m131 -8 c14 -19 14 -19 -2 -6 -10 7 -18 18 -18 24 0 6 1 8 3 6 1 -2 9
-13 17 -24z m-471 -57 c-6 -12 -20 -31 -30 -42 -14 -14 -16 -23 -8 -33 8 -9 7
-14 -4 -19 -9 -3 -15 -11 -13 -17 1 -7 1 -9 -1 -4 -9 14 -22 7 -16 -10 4 -9 2
-14 -3 -11 -5 4 -38 -33 -74 -80 -144 -191 -339 -366 -525 -471 -54 -30 -15 0
60 48 105 66 263 200 344 292 76 86 194 249 207 286 10 27 54 83 65 83 6 0 5
-9 -2 -22z m-99 -57 c0 -6 -5 -13 -11 -16 -6 -4 -8 -14 -4 -24 5 -12 4 -13 -6
-4 -9 9 -9 16 -1 26 7 8 9 17 5 20 -3 4 -1 7 5 7 7 0 12 -4 12 -9z m207 -53
c-3 -8 -6 -5 -6 6 -1 11 2 17 5 13 3 -3 4 -12 1 -19z m-22 -147 c3 -6 -3 -15
-14 -20 -18 -10 -21 -3 -12 27 2 6 20 1 26 -7z m40 -29 c-3 -3 -11 0 -18 7 -9
10 -8 11 6 5 10 -3 15 -9 12 -12z m-78 -224 c-3 -8 -6 -5 -6 6 -1 11 2 17 5
13 3 -3 4 -12 1 -19z m3 -38 c0 -5 -2 -10 -4 -10 -3 0 -8 5 -11 10 -3 6 -1 10
4 10 6 0 11 -4 11 -10z m-620 -230 c-34 -38 -74 -77 -89 -86 -14 -9 12 22 59
70 46 47 86 86 88 86 2 0 -24 -31 -58 -70z m660 -1579 c0 -23 -1 -24 -20 -6
-11 10 -20 21 -20 24 0 4 9 7 20 7 15 0 20 -7 20 -25z"/>
<path d="M4326 2733 c-6 -14 -5 -15 5 -6 7 7 10 15 7 18 -3 3 -9 -2 -12 -12z"/>
<path d="M4330 2700 c-14 -20 -26 -27 -38 -23 -9 3 -14 3 -11 -1 11 -12 49
-15 46 -3 -1 6 3 11 10 12 6 0 15 4 20 9 5 5 3 6 -4 2 -16 -9 -17 6 -1 22 7 7
9 12 6 12 -4 0 -16 -13 -28 -30z"/>
<path d="M4286 2624 c-20 -19 -20 -25 -2 -18 8 3 17 12 20 20 7 18 1 18 -18
-2z"/>
<path d="M4196 2557 c3 -10 9 -15 12 -12 3 3 0 11 -7 18 -10 9 -11 8 -5 -6z"/>
<path d="M3885 2650 c-3 -6 1 -7 9 -4 18 7 21 14 7 14 -6 0 -13 -4 -16 -10z"/>
<path d="M2520 4963 c123 -100 256 -261 320 -387 22 -43 40 -71 40 -63 0 27
-68 148 -127 227 -73 96 -236 260 -260 260 -13 0 -5 -11 27 -37z"/>
<path d="M2640 4990 c0 -5 6 -10 13 -10 8 0 25 -17 38 -37 13 -21 38 -47 56
-58 18 -11 32 -26 33 -33 0 -20 50 -82 66 -82 21 0 20 146 -1 154 -8 3 -15 15
-15 26 0 11 7 23 15 26 39 15 5 24 -95 24 -67 0 -110 -4 -110 -10z"/>
<path d="M2944 4867 c-1 -132 -20 -265 -50 -354 -17 -51 -12 -83 6 -38 38 95
52 184 57 353 3 95 2 172 -3 172 -5 0 -9 -60 -10 -133z"/>
<path d="M3777 4974 c58 -83 111 -224 139 -376 28 -147 24 -512 -6 -568 l-12
-23 29 21 c36 26 60 53 53 61 -3 3 2 6 11 6 40 0 318 325 376 440 19 37 12 31
-35 -32 -23 -30 -44 -48 -57 -48 -11 0 -29 -6 -39 -15 -10 -8 -3 8 16 35 90
130 119 176 159 250 23 44 47 85 54 90 6 6 14 33 18 60 l6 50 -16 -35 c-108
-238 -240 -430 -446 -646 l-83 -87 10 89 c10 98 -2 268 -30 402 -33 158 -111
343 -148 350 -18 4 -18 3 1 -24z m503 -539 c-7 -9 -15 -13 -19 -10 -3 3 1 10
9 15 21 14 24 12 10 -5z"/>
<path d="M3915 4944 c14 -31 25 -58 25 -60 0 -2 6 -4 14 -4 7 0 19 -7 26 -16
11 -12 11 -18 -2 -30 -13 -13 -13 -21 -2 -54 7 -21 21 -79 30 -128 15 -81 18
-89 36 -84 22 5 39 -14 31 -35 -3 -7 -14 -13 -24 -13 -21 0 -22 -13 -11 -90
l7 -45 54 65 c92 110 159 204 206 285 41 72 43 79 27 91 -14 10 -15 16 -6 31
7 10 21 17 32 16 15 -2 21 5 26 31 4 19 15 45 26 59 11 14 20 28 20 31 0 3
-121 6 -270 6 l-270 0 25 -56z m155 20 c11 -12 10 -18 -3 -32 -16 -15 -18 -15
-34 0 -13 14 -14 20 -3 32 7 9 16 16 20 16 4 0 13 -7 20 -16z m198 7 c20 -12
10 -46 -14 -49 -25 -4 -40 24 -23 44 13 16 19 17 37 5z m-98 -106 c17 -20 5
-45 -20 -45 -11 0 -23 7 -26 15 -6 15 11 45 26 45 4 0 13 -7 20 -15z m-106
-100 c19 -19 10 -45 -15 -45 -25 0 -35 26 -19 45 15 18 15 18 34 0z m206 0
c17 -20 5 -45 -20 -45 -11 0 -23 7 -26 15 -6 15 11 45 26 45 4 0 13 -7 20 -15z
m-100 -100 c17 -20 5 -45 -20 -45 -11 0 -23 7 -26 15 -6 15 11 45 26 45 4 0
13 -7 20 -15z"/>
<path d="M4540 4991 c0 -6 4 -12 9 -15 15 -10 33 -136 22 -150 -16 -19 -40
-155 -27 -150 18 6 38 -12 34 -32 -2 -13 -12 -19 -28 -19 -23 0 -28 -9 -62
-110 -20 -60 -39 -118 -43 -127 -5 -13 -2 -18 9 -18 22 0 31 -27 16 -45 -9
-11 -17 -12 -31 -4 -17 9 -22 4 -42 -39 -35 -74 -112 -178 -203 -272 l-83 -85
81 -84 c45 -47 91 -103 103 -125 16 -30 28 -40 43 -39 29 3 49 -24 34 -47 -11
-18 11 -80 87 -245 10 -22 28 -94 41 -160 29 -158 28 -153 53 -157 12 -2 23
-11 25 -22 4 -21 -16 -38 -37 -31 -9 4 -11 0 -7 -11 3 -8 6 -40 6 -69 0 -45 3
-55 20 -60 25 -8 26 -45 1 -52 -14 -3 -20 -17 -25 -56 -9 -78 -8 -97 7 -92 19
7 39 -10 35 -31 -4 -22 -48 -33 -49 -12 -1 11 -37 -132 -38 -153 -1 -12 36
-17 52 -8 11 7 20 4 29 -9 7 -11 39 -28 70 -40 31 -12 86 -34 121 -50 56 -26
65 -27 74 -14 13 22 43 8 43 -20 0 -18 14 -30 60 -54 l60 -31 0 1373 0 1374
-230 0 c-137 0 -230 -4 -230 -9z m135 -41 c0 -29 -32 -41 -41 -16 -9 24 4 48
23 44 12 -2 18 -12 18 -28z m200 0 c0 -16 -6 -26 -18 -28 -19 -4 -32 20 -23
44 9 25 41 13 41 -16z m-111 -76 c20 -8 21 -43 1 -50 -24 -10 -47 14 -34 37
11 21 11 21 33 13z m216 -9 c10 -12 10 -18 0 -30 -25 -30 -61 -7 -46 30 3 8
12 15 19 15 8 0 20 -7 27 -15z m-302 -113 c4 -26 -22 -40 -43 -22 -11 9 -12
17 -4 32 13 25 43 19 47 -10z m197 -7 c0 -30 -39 -27 -43 3 -3 20 0 23 20 20
15 -2 23 -10 23 -23z m-97 -99 c-2 -13 -10 -21 -23 -21 -23 0 -33 34 -14 45
20 13 40 -1 37 -24z m201 10 c9 -10 8 -16 -4 -26 -20 -16 -45 -6 -45 20 0 23
31 28 49 6z m-299 -112 c0 -19 -5 -24 -24 -24 -29 0 -40 24 -20 44 20 20 44 9
44 -20z m198 2 c-2 -13 -12 -22 -25 -24 -19 -3 -23 1 -23 21 0 14 6 27 13 30
22 7 38 -5 35 -27z m-301 -110 c-8 -20 -43 -21 -51 -1 -3 8 2 22 11 30 14 15
18 15 31 1 8 -8 12 -22 9 -30z m198 9 c0 -23 -34 -33 -45 -14 -13 20 1 40 24
37 13 -2 21 -10 21 -23z m203 13 c15 -15 -3 -38 -29 -38 -14 0 -19 7 -19 25 0
27 26 35 48 13z m-300 -114 c4 -26 -20 -37 -43 -21 -10 8 -14 19 -9 30 9 25
48 18 52 -9z m200 2 c4 -21 -14 -37 -35 -29 -14 5 -18 35 -6 47 12 12 38 1 41
-18z m-301 -92 c3 -8 -1 -22 -9 -30 -13 -14 -17 -14 -31 1 -9 8 -14 22 -11 30
8 20 43 19 51 -1z m201 -10 c4 -28 -28 -41 -45 -19 -16 23 -5 47 21 43 13 -2
22 -11 24 -24z m201 12 c9 -11 8 -17 -4 -30 -19 -18 -45 -11 -45 13 0 32 28
42 49 17z m-501 -112 c4 -27 -26 -40 -46 -20 -13 13 -13 18 -2 31 18 21 44 15
48 -11z m200 2 c4 -21 -14 -37 -35 -29 -14 5 -18 35 -6 47 12 12 38 1 41 -18z
m200 0 c4 -21 -14 -37 -35 -29 -14 5 -18 35 -6 47 12 12 38 1 41 -18z m-501
-92 c3 -8 -2 -23 -11 -32 -14 -15 -18 -15 -31 -1 -9 9 -13 23 -9 32 8 21 43
22 51 1z m201 -10 c4 -26 -26 -40 -45 -21 -8 7 -11 21 -7 31 9 24 48 17 52
-10z m197 1 c0 -23 -34 -33 -45 -14 -13 20 1 40 24 37 13 -2 21 -10 21 -23z
m204 11 c9 -11 8 -18 -5 -30 -22 -22 -38 -15 -42 17 -3 21 1 27 16 27 11 0 25
-6 31 -14z m-715 -82 c21 -8 21 -43 0 -51 -8 -3 -23 1 -31 10 -13 13 -14 19
-3 31 14 18 13 18 34 10z m200 0 c21 -8 21 -43 0 -51 -8 -3 -23 1 -31 10 -13
13 -14 19 -3 31 14 18 13 18 34 10z m211 -24 c0 -29 -32 -41 -41 -16 -9 24 4
48 23 44 12 -2 18 -12 18 -28z m193 21 c19 -11 11 -45 -11 -49 -19 -4 -32 20
-23 43 6 17 15 19 34 6z m-498 -106 c17 -20 5 -45 -20 -45 -11 0 -23 7 -26 15
-6 15 11 45 26 45 4 0 13 -7 20 -15z m194 9 c21 -8 21 -43 0 -51 -8 -3 -23 1
-31 10 -13 13 -14 19 -3 31 14 18 13 18 34 10z m200 0 c20 -8 21 -43 1 -50
-24 -10 -47 14 -34 37 11 21 11 21 33 13z m216 -9 c10 -12 10 -18 0 -30 -25
-30 -61 -7 -46 30 3 8 12 15 19 15 8 0 20 -7 27 -15z m-510 -100 c17 -20 5
-45 -20 -45 -11 0 -23 7 -26 15 -6 15 11 45 26 45 4 0 13 -7 20 -15z m208 -13
c4 -26 -22 -40 -43 -22 -11 9 -12 17 -4 32 13 25 43 19 47 -10z m197 -7 c0
-30 -39 -27 -43 3 -3 20 0 23 20 20 15 -2 23 -10 23 -23z m-307 -74 c20 -12
10 -46 -14 -49 -25 -4 -40 24 -23 44 13 16 19 17 37 5z m210 -25 c-2 -13 -10
-21 -23 -21 -23 0 -33 34 -14 45 20 13 40 -1 37 -24z m201 10 c9 -10 8 -16 -4
-26 -20 -16 -45 -6 -45 20 0 23 31 28 49 6z m-502 -120 c-4 -9 -16 -16 -27
-16 -29 0 -38 30 -15 47 16 11 21 11 33 -1 8 -8 12 -22 9 -30z m203 9 c0 -29
-25 -39 -45 -19 -8 9 -15 17 -15 19 0 2 7 10 15 19 20 20 45 10 45 -19z m198
1 c-2 -13 -12 -22 -25 -24 -19 -3 -23 1 -23 21 0 14 6 27 13 30 22 7 38 -5 35
-27z m-301 -110 c-8 -21 -43 -20 -51 1 -10 26 23 48 42 29 8 -8 12 -22 9 -30z
m198 9 c0 -23 -34 -33 -45 -14 -13 20 1 40 24 37 13 -2 21 -10 21 -23z m203
13 c15 -15 -3 -38 -29 -38 -14 0 -19 7 -19 25 0 27 26 35 48 13z m-300 -114
c4 -26 -20 -37 -43 -21 -10 8 -14 19 -9 30 9 25 48 18 52 -9z m200 2 c4 -21
-14 -37 -35 -29 -14 5 -18 35 -6 47 12 12 38 1 41 -18z m-301 -92 c3 -8 -1
-22 -9 -30 -13 -14 -17 -14 -31 1 -9 8 -14 22 -11 30 8 20 43 19 51 -1z m201
-10 c4 -28 -28 -41 -45 -19 -16 23 -5 47 21 43 13 -2 22 -11 24 -24z m201 12
c9 -11 8 -17 -4 -30 -19 -18 -45 -11 -45 13 0 32 28 42 49 17z m-301 -110 c4
-21 -14 -37 -35 -29 -14 5 -18 35 -6 47 12 12 38 1 41 -18z m200 0 c4 -21 -14
-37 -35 -29 -14 5 -18 35 -6 47 12 12 38 1 41 -18z m-101 -92 c3 -8 -1 -22 -9
-30 -13 -14 -17 -14 -31 1 -9 8 -14 22 -11 30 8 20 43 19 51 -1z m202 2 c9
-11 8 -18 -5 -30 -22 -22 -38 -15 -42 17 -3 21 1 27 16 27 11 0 25 -6 31 -14z
m-304 -106 c0 -29 -32 -41 -41 -16 -9 24 4 48 23 44 12 -2 18 -12 18 -28z
m200 0 c0 -29 -32 -41 -41 -16 -9 24 4 48 23 44 12 -2 18 -12 18 -28z m-111
-76 c20 -8 21 -43 1 -50 -24 -10 -47 14 -34 37 11 21 11 21 33 13z m216 -9
c10 -12 10 -18 0 -30 -25 -30 -61 -7 -46 30 3 8 12 15 19 15 8 0 20 -7 27 -15z
m-305 -115 c0 -29 -32 -41 -41 -16 -9 24 4 48 23 44 12 -2 18 -12 18 -28z
m200 -5 c0 -30 -39 -27 -43 3 -3 20 0 23 20 20 15 -2 23 -10 23 -23z m-97 -99
c-2 -13 -10 -21 -23 -21 -23 0 -33 34 -14 45 20 13 40 -1 37 -24z m201 10 c9
-10 8 -16 -4 -26 -20 -16 -45 -6 -45 20 0 23 31 28 49 6z m-299 -112 c0 -19
-5 -24 -24 -24 -29 0 -40 24 -20 44 20 20 44 9 44 -20z m198 2 c-2 -13 -12
-22 -25 -24 -19 -3 -23 1 -23 21 0 14 6 27 13 30 22 7 38 -5 35 -27z m-103
-101 c0 -23 -34 -33 -45 -14 -13 20 1 40 24 37 13 -2 21 -10 21 -23z m203 13
c15 -15 -3 -38 -29 -38 -14 0 -19 7 -19 25 0 27 26 35 48 13z"/>
<path d="M3176 4793 c-3 -43 -8 -98 -11 -123 -4 -43 -4 -43 5 -10 11 41 25
210 18 210 -3 0 -8 -35 -12 -77z"/>
<path d="M3274 4700 c10 -33 16 -74 9 -63 -10 14 -44 -11 -62 -45 -7 -12 -15
-20 -20 -18 -4 3 -15 -8 -25 -25 -9 -16 -21 -27 -26 -24 -13 8 -42 -26 -36
-41 3 -8 2 -14 -3 -14 -5 0 -16 -21 -26 -47 -24 -66 -115 -227 -170 -303 -26
-34 -45 -64 -42 -66 2 -2 22 5 44 16 61 29 170 57 279 71 155 19 378 0 452
-40 12 -6 22 -9 22 -7 0 8 -97 56 -166 82 -34 13 -91 28 -126 34 l-64 11 9 77
c14 121 -14 377 -43 406 -8 8 -10 7 -6 -4z"/>
<path d="M1470 4521 c-16 -6 27 -10 128 -12 83 -2 152 -1 152 4 0 4 -17 7 -38
7 -22 0 -79 2 -128 5 -49 2 -100 1 -114 -4z"/>
<path d="M1773 4503 c9 -2 25 -2 35 0 9 3 1 5 -18 5 -19 0 -27 -2 -17 -5z"/>
<path d="M1855 4493 c67 -15 187 -61 228 -87 43 -28 47 -34 42 -60 -3 -16 -6
-30 -8 -31 -1 0 -28 -17 -59 -38 -32 -20 -64 -37 -72 -37 -8 0 -18 -5 -22 -12
-5 -7 -2 -8 7 -3 12 7 12 6 1 -6 -12 -12 -16 -11 -29 9 -31 45 -255 202 -287
202 -6 0 13 -13 41 -29 77 -42 142 -92 199 -153 98 -103 203 -265 188 -289 -4
-7 27 -8 94 -3 77 5 116 3 176 -11 43 -9 80 -14 84 -11 10 10 -16 95 -52 171
-34 72 -103 170 -153 217 -75 72 -307 180 -376 177 -20 -1 -20 -2 -2 -6z"/>
<path d="M4265 4479 c-4 -6 -5 -12 -2 -15 2 -3 7 2 10 11 7 17 1 20 -8 4z"/>
<path d="M1590 4450 c8 -5 20 -10 25 -10 6 0 3 5 -5 10 -8 5 -19 10 -25 10 -5
0 -3 -5 5 -10z"/>
<path d="M2333 3065 c0 -8 3 -13 5 -10 3 3 12 -1 21 -7 10 -8 9 -4 -3 10 -23
26 -23 26 -23 7z"/>
<path d="M3760 3074 c0 -7 27 -34 34 -34 4 0 1 9 -6 20 -12 19 -28 27 -28 14z"/>
<path d="M3840 3008 c0 -4 32 -8 70 -8 40 0 70 4 70 10 0 6 -29 9 -70 8 -38
-1 -70 -6 -70 -10z"/>
<path d="M1905 2777 c-66 -66 -93 -185 -53 -234 6 -7 26 -13 46 -13 64 0 132
105 132 205 0 39 -34 85 -62 85 -11 0 -40 -19 -63 -43z"/>
<path d="M1591 2625 c0 -15 22 -33 82 -68 65 -39 77 -43 57 -22 -13 14 -48 40
-77 56 -28 16 -54 35 -56 42 -3 7 -6 3 -6 -8z"/>
<path d="M1290 2528 c-11 -18 -20 -40 -20 -48 1 -8 7 0 16 19 8 19 19 41 26
48 6 7 8 13 4 13 -3 0 -15 -15 -26 -32z"/>
<path d="M1260 2419 c0 -24 5 -51 10 -59 7 -10 8 2 4 40 -8 69 -14 77 -14 19z"/>
<path d="M4260 2433 c8 -3 21 -10 28 -16 7 -5 15 -7 19 -3 10 9 0 15 -33 20
-16 2 -22 1 -14 -1z"/>
<path d="M1914 2408 l-19 -23 23 19 c21 18 27 26 19 26 -2 0 -12 -10 -23 -22z"/>
<path d="M4098 2423 c12 -2 30 -2 40 0 9 3 -1 5 -23 4 -22 0 -30 -2 -17 -4z"/>
<path d="M4218 2413 c7 -3 16 -2 19 1 4 3 -2 6 -13 5 -11 0 -14 -3 -6 -6z"/>
<path d="M4088 2403 c6 -2 18 -2 25 0 6 3 1 5 -13 5 -14 0 -19 -2 -12 -5z"/>
<path d="M4168 2403 c7 -3 16 -2 19 1 4 3 -2 6 -13 5 -11 0 -14 -3 -6 -6z"/>
<path d="M1255 2329 c-11 -4 -33 -19 -49 -33 l-30 -25 18 -58 c11 -32 21 -53
23 -48 2 6 -3 32 -11 58 -14 46 -14 47 11 67 14 11 36 20 49 20 13 0 24 4 24
9 0 16 -13 19 -35 10z"/>
<path d="M4081 2322 c1 -16 18 -46 18 -34 1 6 6 12 12 12 5 0 7 -4 4 -10 -3
-6 1 -7 9 -4 25 10 296 -154 296 -179 0 -7 13 -21 29 -32 59 -41 280 -236 409
-360 73 -70 135 -125 138 -123 8 8 -282 285 -416 397 l-123 104 249 -6 c137
-3 260 -9 274 -13 18 -5 22 -4 15 5 -7 6 -78 16 -170 22 -206 14 -208 14 -195
39 6 11 8 20 6 20 -3 0 -1 11 4 25 9 23 8 24 -16 15 -30 -12 -57 0 -79 34 -17
25 -44 31 -280 61 -66 9 -135 20 -152 25 -18 4 -33 5 -32 2z m489 -152 c0 -5
-4 -10 -10 -10 -5 0 -10 5 -10 10 0 6 5 10 10 10 6 0 10 -4 10 -10z"/>
<path d="M2618 2183 c12 -2 30 -2 40 0 9 3 -1 5 -23 4 -22 0 -30 -2 -17 -4z"/>
<path d="M2755 2164 c25 -10 150 -42 153 -39 6 5 -127 45 -147 44 -9 0 -11 -2
-6 -5z"/>
<path d="M1200 2112 c0 -37 -6 -48 -45 -87 -32 -31 -39 -42 -23 -36 12 4 27
16 33 26 5 11 18 26 27 35 17 15 28 83 15 96 -4 4 -7 -11 -7 -34z"/>
<path d="M1773 2085 c0 -27 2 -38 4 -22 2 15 2 37 0 50 -2 12 -4 0 -4 -28z"/>
<path d="M816 1987 c-24 -36 -46 -107 -45 -146 0 -30 3 -25 14 28 8 35 23 81
33 102 22 43 20 51 -2 16z"/>
<path d="M4700 1998 c8 -8 79 -74 158 -147 l142 -133 0 135 0 134 -38 7 c-22
3 -92 9 -158 12 -104 6 -117 5 -104 -8z m178 -52 c-2 -13 -10 -21 -23 -21 -23
0 -33 34 -14 45 20 13 40 -1 37 -24z m102 -81 c10 -12 10 -18 0 -30 -25 -30
-61 -7 -46 30 3 8 12 15 19 15 8 0 20 -7 27 -15z"/>
<path d="M2692 1969 c-66 -26 -178 -140 -304 -310 -24 -32 -53 -46 -295 -143
-147 -58 -278 -106 -291 -106 -85 1 -292 184 -378 335 l-30 54 -41 -37 c-40
-36 -42 -39 -46 -112 -4 -72 -3 -73 9 -35 7 22 13 54 13 71 1 19 11 40 29 57
l28 27 41 -63 c23 -35 87 -108 142 -164 l100 -100 -46 -7 c-25 -3 -61 -6 -79
-6 -19 0 -68 -9 -109 -21 -102 -28 -127 -21 -154 39 l-20 47 -1 -52 0 -52 38
-8 c20 -4 136 -8 257 -8 l220 0 105 42 c243 96 456 185 476 198 12 8 65 67
117 132 114 142 136 163 207 202 53 30 59 39 12 20z m-972 -564 c23 -13 12
-14 -110 -13 -140 0 -146 2 -45 17 90 13 127 12 155 -4z"/>
<path d="M1050 1950 c0 -5 -3 -9 -7 -8 -16 4 -93 -43 -104 -64 -6 -12 -15 -54
-20 -94 -6 -59 -19 -94 -68 -192 l-60 -120 -51 0 c-179 -2 -396 -145 -525
-347 -70 -109 -147 -292 -144 -344 0 -9 7 9 16 39 18 69 100 241 149 316 119
180 303 305 470 321 52 5 70 2 111 -17 61 -30 183 -152 210 -210 46 -102 44
-99 37 -60 -4 19 -15 53 -26 74 -25 48 -131 155 -193 195 -25 16 -42 32 -37
35 5 3 35 62 66 131 41 91 58 142 63 187 8 83 15 94 78 125 30 14 52 29 49 34
-7 12 -14 11 -14 -1z"/>
<path d="M716 1878 c-4 -27 -4 -65 0 -85 l8 -38 4 43 c2 23 2 61 0 85 l-3 42
-9 -47z"/>
<path d="M810 1726 c0 -8 -11 -23 -24 -33 -19 -15 -21 -21 -10 -31 11 -10 15
-8 24 7 21 40 30 71 20 71 -6 0 -10 -6 -10 -14z"/>
<path d="M1770 1726 c0 -2 8 -10 18 -17 15 -13 16 -12 3 4 -13 16 -21 21 -21
13z"/>
<path d="M1378 1545 l-15 -55 27 0 c72 0 121 25 63 32 -20 2 -28 9 -29 23 -1
25 -14 55 -23 55 -4 0 -15 -25 -23 -55z"/>
<path d="M2931 1372 c-3 -51 -46 -103 -128 -157 -24 -15 -43 -31 -43 -36 0 -5
31 14 68 41 72 53 116 114 109 153 l-4 22 -2 -23z"/>
<path d="M4205 1241 c11 -13 29 -28 40 -33 20 -11 20 -11 0 11 -11 13 -29 28
-40 33 -20 11 -20 11 0 -11z"/>
<path d="M3280 1136 c0 -2 45 -32 100 -66 91 -57 234 -154 319 -219 19 -14 32
-21 28 -15 -10 17 16 46 36 38 21 -8 22 -40 1 -52 -14 -8 -11 -13 17 -33 19
-13 48 -24 64 -24 26 0 30 -4 30 -28 0 -32 37 -66 71 -67 23 0 48 -23 37 -34
-10 -10 48 -66 69 -66 10 0 19 -4 19 -10 1 -5 2 -13 3 -17 1 -5 12 -25 25 -46
18 -30 26 -35 37 -26 11 9 18 8 29 -1 19 -16 19 -37 -1 -48 -14 -8 -14 -19 5
-118 12 -60 28 -138 36 -174 8 -36 15 -80 15 -97 l0 -33 390 0 390 0 0 160 c0
137 -2 160 -15 160 -9 0 -57 31 -108 69 -83 63 -93 68 -99 50 -9 -22 -43 -26
-52 -4 -3 8 1 21 9 29 13 13 11 17 -15 36 -17 12 -39 20 -49 17 -22 -6 -38 3
-43 23 -4 19 -110 86 -238 150 -83 42 -103 48 -119 39 -26 -17 -55 -4 -48 21
4 16 -6 24 -52 46 -121 56 -290 124 -307 124 -9 0 -25 7 -33 15 -21 18 -251
106 -251 95 0 -4 -7 -11 -16 -14 -20 -8 -47 12 -40 30 3 8 -13 19 -47 30 -29
9 -81 28 -117 41 -65 23 -80 27 -80 19z m395 -186 c0 -29 -32 -41 -41 -16 -9
24 4 48 23 44 12 -2 18 -12 18 -28z m305 -85 c10 -12 10 -18 0 -30 -25 -30
-61 -7 -46 30 3 8 12 15 19 15 8 0 20 -7 27 -15z m84 -100 c19 -19 10 -45 -15
-45 -25 0 -35 26 -19 45 15 18 15 18 34 0z m106 -100 c17 -20 5 -45 -20 -45
-11 0 -23 7 -26 15 -6 15 11 45 26 45 4 0 13 -7 20 -15z m200 0 c18 -21 5 -47
-22 -43 -26 3 -37 36 -16 49 18 12 24 11 38 -6z m-100 -100 c17 -20 5 -45 -20
-45 -11 0 -23 7 -26 15 -6 15 11 45 26 45 4 0 13 -7 20 -15z m207 -29 c-4 -9
-16 -16 -27 -16 -29 0 -38 30 -15 47 16 11 21 11 33 -1 8 -8 12 -22 9 -30z
m100 -100 c-8 -20 -43 -21 -51 -1 -3 8 2 22 11 30 14 15 18 15 31 1 8 -8 12
-22 9 -30z m-202 9 c0 -22 -31 -33 -47 -17 -17 17 -1 44 24 40 15 -2 23 -10
23 -23z m-98 -91 c3 -8 -2 -23 -11 -32 -15 -15 -17 -15 -32 0 -21 21 -11 48
16 48 11 0 23 -7 27 -16z m200 0 c3 -8 -1 -22 -9 -30 -12 -12 -17 -12 -33 -1
-23 17 -14 47 15 47 11 0 23 -7 27 -16z m201 -10 c4 -26 -20 -37 -43 -21 -10
8 -14 19 -9 30 9 25 48 18 52 -9z m200 2 c4 -21 -14 -37 -35 -29 -14 5 -18 35
-6 47 12 12 38 1 41 -18z m-503 -101 c0 -21 -31 -33 -46 -18 -5 5 -7 17 -3 27
9 24 49 17 49 -9z m202 9 c3 -8 -1 -22 -9 -30 -13 -14 -17 -14 -31 1 -9 8 -14
22 -11 30 8 20 43 19 51 -1z m201 -10 c4 -28 -28 -41 -45 -19 -16 23 -5 47 21
43 13 -2 22 -11 24 -24z m201 12 c9 -11 8 -17 -4 -30 -19 -18 -45 -11 -45 13
0 32 28 42 49 17z m-702 -102 c3 -8 -2 -23 -11 -32 -15 -15 -17 -15 -32 0 -21
21 -11 48 16 48 11 0 23 -7 27 -16z m201 -10 c4 -27 -26 -40 -46 -20 -13 13
-13 18 -2 31 18 21 44 15 48 -11z m200 2 c4 -21 -14 -37 -35 -29 -14 5 -18 35
-6 47 12 12 38 1 41 -18z m200 0 c4 -21 -14 -37 -35 -29 -14 5 -18 35 -6 47
12 12 38 1 41 -18z m-501 -92 c3 -8 -2 -23 -11 -32 -14 -15 -18 -15 -31 -1 -9
9 -13 23 -9 32 8 21 43 22 51 1z m201 -10 c4 -26 -26 -40 -45 -21 -8 7 -11 21
-7 31 9 24 48 17 52 -10z m197 1 c0 -23 -34 -33 -45 -14 -13 20 1 40 24 37 13
-2 21 -10 21 -23z m204 11 c9 -11 8 -18 -5 -30 -22 -22 -38 -15 -42 17 -3 21
1 27 16 27 11 0 25 -6 31 -14z"/>
<path d="M1060 1114 c0 -6 10 -24 22 -39 l22 -28 -26 -22 c-22 -19 -24 -25
-12 -36 7 -8 10 -19 6 -24 -10 -15 -60 -35 -87 -35 -38 0 -55 -11 -55 -35 0
-33 -44 -82 -88 -96 -52 -16 -198 -77 -252 -104 -25 -12 -73 -25 -110 -28 -36
-3 -119 -11 -185 -17 -174 -15 -295 -38 -295 -57 0 -11 4 -13 12 -6 15 12 116
28 305 50 194 22 202 22 255 -12 52 -34 326 -256 376 -305 17 -18 32 -28 32
-23 0 22 -338 307 -417 352 -10 5 -16 11 -13 14 3 2 83 37 178 77 177 75 212
99 212 145 0 19 7 24 48 30 26 4 55 11 64 16 26 14 42 48 29 63 -7 8 -4 15 10
24 10 7 19 21 19 32 0 20 -49 83 -50 64z"/>
<path d="M4580 1037 c0 -21 48 -61 73 -62 16 0 23 -7 25 -25 4 -27 50 -82 63
-75 17 11 39 -9 39 -34 0 -32 34 -68 70 -73 19 -2 25 -9 25 -28 0 -28 47 -100
53 -82 5 16 37 15 51 -2 10 -11 8 -17 -9 -29 l-21 -15 25 -28 26 -29 -3 174
-2 174 -54 19 c-37 12 -58 15 -65 8 -17 -17 -36 -11 -45 13 -7 18 -34 32 -123
65 -126 47 -128 47 -128 29z m400 -172 c10 -12 10 -18 0 -30 -25 -30 -61 -7
-46 30 3 8 12 15 19 15 8 0 20 -7 27 -15z"/>
<path d="M72 715 c0 -11 4 -31 8 -45 6 -20 8 -21 8 -5 0 11 -4 31 -8 45 -6 20
-8 21 -8 5z"/>
<path d="M430 579 c0 -7 -11 -8 -30 -4 -19 4 -30 3 -30 -4 0 -7 -32 -11 -87
-12 l-88 0 50 -14 c62 -17 125 -43 125 -52 0 -4 -11 -18 -24 -32 -51 -56 -159
-208 -194 -272 -36 -67 -38 -68 -69 -63 -18 4 -44 3 -58 0 -23 -6 -25 -11 -25
-66 l0 -60 506 0 506 0 -6 33 c-3 17 -10 65 -15 105 -11 88 -46 152 -101 187
-52 33 -60 32 -26 -4 28 -30 57 -106 55 -150 0 -18 -8 -6 -26 42 -28 72 -33
78 -178 191 -131 102 -147 111 -188 115 -5 1 -5 6 -1 13 5 7 0 9 -14 6 -14 -4
-19 -2 -16 7 3 7 -5 15 -20 19 -14 3 -26 11 -26 16 0 6 -4 10 -10 10 -5 0 -10
-5 -10 -11z"/>
<path d="M3890 471 c-68 -21 -159 -87 -201 -145 -17 -25 -12 -22 27 14 83 77
148 116 217 130 34 6 36 8 12 8 -16 0 -41 -3 -55 -7z"/>
<path d="M2060 432 c-30 -14 -104 -47 -163 -73 -115 -50 -159 -75 -67 -39 30
12 69 27 85 32 17 6 34 15 40 19 5 5 14 9 20 9 5 0 44 18 85 40 84 44 84 52 0
12z"/>
<path d="M800 386 c0 -2 8 -10 18 -17 15 -13 16 -12 3 4 -13 16 -21 21 -21 13z"/>
<path d="M1590 220 c-91 -42 -168 -76 -172 -73 -5 2 -8 -1 -8 -7 0 -6 -4 -9
-9 -6 -9 6 -184 -64 -266 -107 -68 -36 -30 -34 50 2 l64 29 -10 -25 c-11 -30
-11 -33 0 -33 5 0 12 16 15 35 6 30 14 38 49 53 23 9 45 16 50 14 4 -1 7 3 7
9 0 5 4 8 9 5 8 -5 273 112 366 162 87 46 12 16 -145 -58z"/>
<path d="M980 274 c0 -6 7 -30 15 -54 8 -23 20 -82 26 -131 6 -49 16 -89 20
-89 13 0 11 35 -10 136 -16 80 -49 170 -51 138z"/>
<path d="M0 175 c0 -22 3 -26 18 -20 9 4 25 7 34 7 28 -1 30 15 4 22 -13 3
-31 9 -40 12 -12 5 -16 0 -16 -21z"/>
</g>
</svg>
